<svg xmlns="http://www.w3.org/2000/svg" viewBox="0 0 162.58 137.86"><defs><style>.cls-1{isolation:isolate;}.cls-2{fill:#2c343f;}.cls-2,.cls-3,.cls-4,.cls-5,.cls-7{stroke:#2c343f;stroke-linecap:round;stroke-linejoin:round;stroke-width:2px;}.cls-3{fill:#e25c58;}.cls-4{fill:#bf5151;}.cls-5,.cls-8{fill:#fff;}.cls-6{fill:#c9c9c9;mix-blend-mode:multiply;}.cls-7{fill:none;}.cls-8{font-size:36px;font-family:SinkinSans-900XBlack, "SinkinSans 900XBlack";font-weight:900;}.cls-9{letter-spacing:0.01em;}.cls-10{letter-spacing:0em;}.cls-11{letter-spacing:-0.01em;}</style></defs><g class="cls-1"><g id="Layer_2" data-name="Layer 2"><g id="Layer_1-2" data-name="Layer 1"><rect class="cls-2" x="1" y="10.35" width="80.29" height="88.53"/><rect class="cls-2" x="81.29" y="10.35" width="80.29" height="88.53"/><rect class="cls-3" x="1" y="7.34" width="80.29" height="88.53"/><rect class="cls-3" x="81.29" y="7.34" width="80.29" height="88.53"/><path class="cls-4" d="M88.54,5.91H74v90s1.39,6,7.25,6,7.25-6,7.25-6Z"/><path class="cls-5" d="M72.37,1H7V89.53H72.37c5.47,0,8.92,6.35,8.92,6.35V7.34S77.84,1,72.37,1Z"/><path class="cls-5" d="M90.21,1h65.33V89.53H90.21c-5.47,0-8.92,6.35-8.92,6.35V7.34S84.74,1,90.21,1Z"/><path class="cls-6" d="M89.16,2.2C85.5,2.85,83,6.66,82.38,7.64V92.5a11.38,11.38,0,0,1,6.78-4Z"/><line class="cls-7" x1="22" y1="22.37" x2="65.53" y2="22.37"/><line class="cls-7" x1="22" y1="35.82" x2="65.53" y2="35.82"/><line class="cls-7" x1="22" y1="49.28" x2="65.53" y2="49.28"/><line class="cls-7" x1="22" y1="62.73" x2="65.53" y2="62.73"/><line class="cls-7" x1="99.67" y1="22.37" x2="143.2" y2="22.37"/><line class="cls-7" x1="99.67" y1="35.82" x2="143.2" y2="35.82"/><line class="cls-7" x1="99.67" y1="49.28" x2="143.2" y2="49.28"/><line class="cls-7" x1="99.67" y1="62.73" x2="143.2" y2="62.73"/><text class="cls-8" transform="translate(10.68 128.86)"><tspan class="cls-9">M</tspan><tspan class="cls-10" x="29.2" y="0">y No</tspan><tspan class="cls-11" x="97.23" y="0">t</tspan><tspan x="108.93" y="0">es</tspan></text></g></g></g></svg>